<svg width="35" height="35" viewBox="0 0 35 35" fill="none" xmlns="http://www.w3.org/2000/svg">
<path d="M10.199 28.077L8.575 9.849H26.425L24.801 28.07L17.486 30.1L10.199 28.077Z" fill="#E44D26"/>
<path d="M17.5 28.553L23.408 26.915L24.801 11.34H17.5V28.553Z" fill="#F16529"/>
<path d="M17.5 18.102H14.539L14.336 15.813H17.5V13.58H17.493H11.893L11.949 14.175L12.495 20.335H17.5V18.102Z" fill="#EBEBEB"/>
<path d="M17.5 23.905L17.493 23.912L15.001 23.233L14.84 21.455H13.629H12.6L12.908 24.962L17.493 26.236L17.5 26.229V23.905Z" fill="#EBEBEB"/>
<path d="M10.234 4.89999H11.368V6.01999H12.404V4.89999H13.538V8.29499H12.404V7.15399H11.368V8.29499H10.234V4.89999Z" fill="black"/>
<path d="M15.036 6.02699H14.035V4.89999H17.171V6.02699H16.17V8.29499H15.036V6.02699Z" fill="black"/>
<path d="M17.675 4.89999H18.858L19.586 6.09699L20.314 4.89999H21.497V8.29499H20.37V6.61499L19.586 7.82599H19.565L18.781 6.61499V8.30199H17.668V4.89999H17.675Z" fill="black"/>
<path d="M22.064 4.89999H23.198V7.17499H24.794V8.29499H22.064V4.89999Z" fill="black"/>
<path d="M17.493 18.102V20.335H20.244L19.985 23.233L17.493 23.905V26.236L22.071 24.962L22.106 24.584L22.631 18.704L22.687 18.102H22.085H17.493Z" fill="white"/>
<path d="M17.493 13.58V14.966V15.806V15.813H22.883H22.89L22.939 15.309L23.037 14.175L23.093 13.58H17.493Z" fill="white"/>
</svg>
