<svg width="21" height="21" viewBox="0 0 21 21" fill="none" xmlns="http://www.w3.org/2000/svg">
<g clip-path="url(#clip0_58_8)">
<path d="M0 0H21V21H0V0Z" fill="#F0DB4F"/>
<path d="M19.2813 15.9915C19.1276 15.0334 18.5028 14.2289 16.6523 13.4783C16.0095 13.1829 15.2929 12.9713 15.0793 12.4842C15.0034 12.2008 14.9934 12.0411 15.0413 11.8694C15.1791 11.3125 15.8438 11.1388 16.3708 11.2985C16.7102 11.4123 17.0316 11.6738 17.2252 12.091C18.1315 11.5041 18.1295 11.5081 18.7623 11.1049C18.5307 10.7456 18.4069 10.5799 18.2552 10.4262C17.7103 9.81732 16.9677 9.50392 15.7799 9.52787C15.5743 9.55382 15.3667 9.58175 15.1611 9.60772C14.5683 9.75744 14.0033 10.0688 13.672 10.486C12.6779 11.6139 12.9613 13.5881 14.171 14.4006C15.3627 15.2949 17.1134 15.4985 17.337 16.3349C17.5546 17.359 16.5844 17.6903 15.6202 17.5726C14.9096 17.4248 14.5144 17.0635 14.0872 16.4068C13.3007 16.8619 13.3007 16.8619 12.4922 17.327C12.6839 17.7462 12.8855 17.9359 13.2069 18.2992C14.728 19.8422 18.5347 19.7664 19.2174 17.4308C19.2453 17.351 19.429 16.816 19.2813 15.9915ZM11.4163 9.65162H9.452C9.452 11.3484 9.44403 13.0332 9.44403 14.7299C9.44403 15.8099 9.49992 16.8 9.32426 17.1034C9.03681 17.7003 8.29222 17.6264 7.95287 17.5106C7.60753 17.341 7.43186 17.0994 7.22825 16.7581C7.17236 16.6603 7.13044 16.5844 7.11644 16.5784C6.58348 16.9038 6.05247 17.2312 5.51949 17.5566C5.785 18.1015 6.17623 18.5746 6.67728 18.882C7.42585 19.3312 8.43194 19.4689 9.48395 19.2274C10.1687 19.0277 10.7595 18.6145 11.0689 17.9857C11.5161 17.1613 11.4202 16.1632 11.4163 15.0593C11.4262 13.2587 11.4163 11.4582 11.4163 9.65162Z" fill="#323330"/>
</g>
<defs>
<clipPath id="clip0_58_8">
<rect width="21" height="21" fill="white"/>
</clipPath>
</defs>
</svg>
